<svg xmlns="http://www.w3.org/2000/svg" width="612" height="792">
  <g fill="#444">
    <path d="M506 650.1c-2 0-3.5 1.6-3.5 3.5 0 2 1.6 3.5 3.5 3.5 2 0 3.5-1.6 3.5-3.5s-1.6-3.5-3.5-3.5zm0 4.5c-.6 0-1-.5-1-1 0-.6.5-1 1-1 .6 0 1 .5 1 1 0 .6-.5 1-1 1zM532 655h-16.4c-.7 0-1.2.6-1.2 1.2v24.6c0 .7.6 1.2 1.2 1.2.7 0 1.2-.6 1.2-1.2v-11.1h9.2c.7 0 1.2-.6 1.2-1.2 0-.7-.6-1.2-1.2-1.2h-9.2v-9.7H532c.7 0 1.2-.6 1.2-1.2.1-.8-.5-1.4-1.2-1.4z"/>
  </g>
  <g fill="#444">
    <path d="M531.7 538.9c-2.1 2.1-4.8 3.2-7.8 3.2-6.1 0-11-4.9-11-11s4.9-11 11-11c2.9 0 5.7 1.1 7.8 3.2.5.5 1.3.5 1.8 0s.5-1.3 0-1.8c-2.5-2.6-5.9-4-9.5-4-7.4 0-13.5 6.1-13.5 13.5s6.1 13.5 13.5 13.5c3.6 0 7-1.4 9.5-4 .5-.5.5-1.3 0-1.8-.5-.3-1.3-.3-1.8.2zM505.3 512.9c-2 0-3.5 1.6-3.5 3.5 0 2 1.6 3.5 3.5 3.5 2 0 3.5-1.6 3.5-3.5.1-1.9-1.5-3.5-3.5-3.5zm0 4.6c-.6 0-1-.5-1-1 0-.6.5-1 1-1 .6 0 1 .5 1 1 .1.5-.4 1-1 1z"/>
  </g>
  <g fill="#444">
    <path d="M513.4 390.3c-.7 0-1.2.6-1.2 1.2 0 .7.6 1.2 1.2 1.2h18.9c.7 0 1.2-.6 1.2-1.2 0-.7-.6-1.2-1.2-1.2h-18.9zM542.6 390.3h-4.8c-.7 0-1.2.6-1.2 1.2 0 .7.6 1.2 1.2 1.2h4.8c.7 0 1.2-.6 1.2-1.2 0-.7-.5-1.2-1.2-1.2zM529.2 385.6c0 .7.6 1.2 1.2 1.2h4.8c.7 0 1.2-.6 1.2-1.2 0-.7-.6-1.2-1.2-1.2h-4.8c-.7 0-1.2.6-1.2 1.2zM524.8 381.3h4.8c.7 0 1.2-.6 1.2-1.2 0-.7-.6-1.2-1.2-1.2h-4.8c-.7 0-1.2.6-1.2 1.2-.1.6.5 1.2 1.2 1.2zM538.3 396H513h-.1c-3.1 0-5.9 1.5-7.7 3.9-2.6 3.5-1.8 8.5 1.7 11 2.9 2.1 7 1.5 9.2-1.5 1.8-2.5 1.2-5.9-1.2-7.7-2.1-1.5-5-1-6.5 1-1.3 1.8-.9 4.3.9 5.5.7.5 1.4.7 2.2.6.7 0 1.2-.6 1.2-1.3 0-.7-.6-1.2-1.3-1.2-.1 0-.4 0-.6-.2-.7-.5-.8-1.4-.3-2.1.7-1 2-1.2 3-.5 1.3 1 1.6 2.9.7 4.2-1.3 1.8-3.9 2.2-5.7.9-2.4-1.7-2.9-5.1-1.2-7.5 1.3-1.8 3.5-2.9 5.8-2.9h25.3c.7 0 1.2-.6 1.2-1.2 0-.4-.6-1-1.3-1zM524.6 386.9c.7 0 1.2-.6 1.2-1.2 0-.7-.6-1.2-1.2-1.2h-21.4-.1c-2.3 0-4.4-1.1-5.7-2.9-1.7-2.4-1.2-5.8 1.2-7.5.9-.6 2-.9 3-.7 1.1.2 2 .7 2.6 1.6 1 1.3.7 3.2-.7 4.2-1 .7-2.3.5-3-.5-.5-.7-.3-1.6.3-2.1.1-.1.2-.1.3-.2.7-.2 1.1-.8.9-1.5-.1-.6-.6-1-1.2-1h-.3c-.5.1-.9.3-1.3.6-1.8 1.3-2.2 3.8-.9 5.5 1.5 2.1 4.4 2.5 6.5 1 2.5-1.8 3-5.2 1.2-7.7-1-1.4-2.6-2.3-4.3-2.6-.3-.1-.7-.1-1-.1-1.4 0-2.7.4-3.8 1.3-3.5 2.6-4.3 7.5-1.7 11 1.8 2.5 4.7 3.9 7.7 3.9H524.6z"/>
  </g>
  <g fill="#444">
    <path d="M521.2 265.2h-8c-.7 0-1.2.6-1.2 1.2s.6 1.2 1.2 1.2h8c.7 0 1.2-.6 1.2-1.2s-.5-1.2-1.2-1.2zM519 270.1h-5.8c-.7 0-1.2.6-1.2 1.2 0 .7.6 1.2 1.2 1.2h5.8c.7 0 1.2-.6 1.2-1.2s-.5-1.2-1.2-1.2zM519 275.1h-5.8c-.7 0-1.2.6-1.2 1.2s.6 1.2 1.2 1.2h5.8c.7 0 1.2-.6 1.2-1.2s-.5-1.2-1.2-1.2zM525.9 260.3h-10.3c-.7 0-1.2.6-1.2 1.2 0 .7.6 1.2 1.2 1.2h10.3c.7 0 1.2-.6 1.2-1.2.1-.7-.5-1.2-1.2-1.2zM528.5 255.4h-15.3c-.7 0-1.2.6-1.2 1.2 0 .7.6 1.2 1.2 1.2h15.3c.7 0 1.2-.6 1.2-1.2 0-.7-.6-1.2-1.2-1.2zM531.9 250.4H515c-.7 0-1.2.6-1.2 1.2s.6 1.2 1.2 1.2h16.9c.7 0 1.2-.6 1.2-1.2s-.5-1.2-1.2-1.2zM513.2 248h15.9c.7 0 1.2-.6 1.2-1.2 0-.7-.6-1.2-1.2-1.2h-15.9c-.7 0-1.2.6-1.2 1.2-.1.6.5 1.2 1.2 1.2zM538.6 240.6H515c-.7 0-1.2.6-1.2 1.2s.6 1.2 1.2 1.2h23.7c.7 0 1.2-.6 1.2-1.2s-.6-1.2-1.3-1.2zM533.1 236.9c0-.7-.6-1.2-1.2-1.2h-25.8c-.7 0-1.2.6-1.2 1.2 0 .7.6 1.2 1.2 1.2h25.8c.7 0 1.2-.5 1.2-1.2zM528 232c0-.7-.6-1.2-1.2-1.2H499c-.7 0-1.2.6-1.2 1.2 0 .7.6 1.2 1.2 1.2h27.7c.7 0 1.3-.5 1.3-1.2z"/>
  </g>
  <path fill="#444" d="M534.2 131.8h-30.6c-4.6 0-8.4-3.7-8.4-8.4 0-4.5 3.6-8.2 8-8.3-.1-.6-.2-1.2-.2-1.9 0-6.3 5.1-11.5 11.5-11.5 3.8 0 7.3 1.9 9.4 4.9 1.3-.7 2.7-1.1 4.2-1.1 5 0 9 4 9 9 0 .3 0 .7-.1 1 3.2 1.2 5.4 4.3 5.4 7.8.1 4.8-3.6 8.5-8.2 8.5zm-30.7-14.2c-3.2 0-5.9 2.6-5.9 5.9s2.6 5.9 5.9 5.9h30.6c3.2 0 5.9-2.6 5.9-5.9 0-2.7-1.9-5.1-4.6-5.7l-1.3-.3.3-1.3c.1-.5.2-1.1.2-1.6 0-3.6-2.9-6.5-6.5-6.5-1.4 0-2.8.5-3.9 1.3l-1.2.9-.7-1.3c-1.6-2.9-4.6-4.8-7.9-4.8-4.9 0-9 4-9 9 0 .9.1 1.8.4 2.7l.5 1.6h-2.8z"/>
  <g fill="#444">
    <path d="M432.3 670.5c-.7-11.3-8.4-19.6-18.5-20.3v-1.1c0-.7-.6-1.2-1.2-1.2-.7 0-1.2.6-1.2 1.2v1.1c-10.1.6-17.8 8.9-18.5 20.3l-.1 1.3h2.5l.2-1c.3-1.6 1.7-2.8 3.3-2.8s3 1.2 3.3 2.8l.2 1h2.2l.2-1c.3-1.6 1.7-2.8 3.3-2.8s3 1.2 3.3 2.8l.1.3v14.3c0 1.2-1 2.2-2.2 2.2-1.2 0-2.2-1-2.2-2.2v-2c0-.7-.6-1.2-1.2-1.2-.7 0-1.2.6-1.2 1.2v2c0 2.6 2.1 4.7 4.7 4.7s4.7-2.1 4.7-4.7v-14.3l.1-.3c.3-1.6 1.7-2.8 3.3-2.8s3 1.2 3.3 2.8l.2 1h2.2l.2-1c.3-1.6 1.7-2.8 3.3-2.8 1.6 0 3 1.2 3.3 2.8l.2 1h2.5l-.3-1.3zm-5.9-5c-1.8 0-3.5.9-4.6 2.2-1.1-1.4-2.7-2.2-4.6-2.2-1.8 0-3.5.9-4.6 2.2-1.1-1.4-2.7-2.2-4.6-2.2-1.8 0-3.5.9-4.6 2.2-1.1-1.4-2.7-2.2-4.6-2.2-1 0-1.9.2-2.7.7 2.1-8.1 8.6-13.5 16.5-13.5s14.4 5.5 16.5 13.5c-.8-.4-1.7-.7-2.7-.7zM395.8 649.1c.7 0 1.2-.6 1.2-1.2v-6.4c0-.7-.6-1.2-1.2-1.2s-1.2.6-1.2 1.2v6.4c-.1.6.5 1.2 1.2 1.2zM401.4 645.9c.7 0 1.2-.6 1.2-1.2v-3.2c0-.7-.6-1.2-1.2-1.2-.7 0-1.2.6-1.2 1.2v3.2c-.1.6.5 1.2 1.2 1.2zM407 649.1c.7 0 1.2-.6 1.2-1.2v-6.4c0-.7-.6-1.2-1.2-1.2-.7 0-1.2.6-1.2 1.2v6.4c-.1.6.5 1.2 1.2 1.2zM412.6 645.9c.7 0 1.2-.6 1.2-1.2v-3.2c0-.7-.6-1.2-1.2-1.2-.7 0-1.2.6-1.2 1.2v3.2c-.1.6.5 1.2 1.2 1.2zM418.2 649.1c.7 0 1.2-.6 1.2-1.2v-6.4c0-.7-.6-1.2-1.2-1.2s-1.2.6-1.2 1.2v6.4c-.1.6.5 1.2 1.2 1.2zM423.8 645.9c.7 0 1.2-.6 1.2-1.2v-3.2c0-.7-.6-1.2-1.2-1.2-.7 0-1.2.6-1.2 1.2v3.2c0 .6.5 1.2 1.2 1.2zM429.4 649.1c.7 0 1.2-.6 1.2-1.2v-6.4c0-.7-.6-1.2-1.2-1.2-.7 0-1.2.6-1.2 1.2v6.4c0 .6.5 1.2 1.2 1.2zM395.8 653.3c.3 0 .7-.1.9-.4.2-.2.4-.6.4-.9 0-.3-.1-.7-.4-.9-.5-.5-1.3-.5-1.8 0-.2.2-.4.6-.4.9 0 .3.1.6.4.9.2.3.5.4.9.4zM401.4 650.1c.3 0 .7-.1.9-.4.2-.2.4-.6.4-.9 0-.3-.1-.7-.4-.9-.5-.5-1.3-.5-1.8 0-.2.2-.4.6-.4.9 0 .3.1.6.4.9.2.2.5.4.9.4zM423.8 650.1c.3 0 .7-.1.9-.4.2-.2.4-.6.4-.9 0-.3-.1-.7-.4-.9-.5-.5-1.3-.5-1.8 0-.2.2-.4.6-.4.9 0 .3.1.6.4.9.3.2.6.4.9.4zM429.4 653.3c.3 0 .7-.1.9-.4.2-.2.4-.6.4-.9 0-.3-.1-.7-.4-.9-.5-.5-1.3-.5-1.8 0-.2.2-.4.6-.4.9 0 .3.1.6.4.9.3.3.6.4.9.4z"/>
  </g>
  <g fill="#444">
    <path d="M430.8 521.2c0-.3.1-.7.1-1 0-5-4-9-9-9-1.5 0-2.9.4-4.2 1.1-2.1-3.1-5.6-4.9-9.4-4.9-6.3 0-11.5 5.1-11.5 11.5 0 .6.1 1.3.2 1.9-4.4.2-8 3.9-8 8.3 0 4.6 3.7 8.4 8.4 8.4H428c4.6 0 8.4-3.7 8.4-8.4-.1-3.5-2.4-6.7-5.6-7.9zm-2.9 13.7h-30.6c-3.2 0-5.9-2.6-5.9-5.9s2.6-5.9 5.9-5.9h2.9l-.5-1.6c-.3-.9-.4-1.8-.4-2.7 0-4.9 4-9 9-9 3.3 0 6.4 1.8 7.9 4.8l.7 1.3 1.2-.9c1.1-.9 2.5-1.3 3.9-1.3 3.6 0 6.5 2.9 6.5 6.5 0 .5-.1 1-.2 1.6l-.3 1.3 1.3.3c2.7.6 4.6 3 4.6 5.7-.1 3.2-2.8 5.8-6 5.8zM406.3 543.1c-.7 0-1.2.6-1.2 1.3 0 .7.6 1.2 1.2 1.2s1.2-.6 1.2-1.2v-.1c0-.7-.6-1.2-1.2-1.2zM399.9 540c-.7 0-1.2.6-1.2 1.3 0 .7.6 1.2 1.2 1.2.7 0 1.2-.6 1.2-1.2v-.1c.1-.7-.5-1.2-1.2-1.2zM399.9 546.2c-.7 0-1.2.6-1.2 1.3 0 .7.6 1.2 1.2 1.2.7 0 1.2-.6 1.2-1.2v-.1c.1-.7-.5-1.2-1.2-1.2zM418.9 543.1c-.7 0-1.2.6-1.2 1.3 0 .7.6 1.2 1.2 1.2s1.2-.6 1.2-1.2v-.1c.1-.7-.5-1.2-1.2-1.2zM412.6 540c-.7 0-1.2.6-1.2 1.3 0 .7.6 1.2 1.2 1.2.7 0 1.2-.6 1.2-1.2v-.1c0-.7-.5-1.2-1.2-1.2zM412.6 546.2c-.7 0-1.2.6-1.2 1.3 0 .7.6 1.2 1.2 1.2.7 0 1.2-.6 1.2-1.2v-.1c0-.7-.5-1.2-1.2-1.2zM425.3 540c-.7 0-1.2.6-1.2 1.3 0 .7.6 1.2 1.2 1.2s1.2-.6 1.2-1.2v-.1c0-.7-.5-1.2-1.2-1.2zM425.3 546.2c-.7 0-1.2.6-1.2 1.3 0 .7.6 1.2 1.2 1.2s1.2-.6 1.2-1.2v-.1c0-.7-.5-1.2-1.2-1.2z"/>
  </g>
  <g fill="#444">
    <path d="M399.1 399.5c-.7 0-1.3.6-1.2 1.3v8c0 .7.6 1.2 1.2 1.2.7 0 1.2-.6 1.2-1.3v-8c0-.6-.6-1.2-1.2-1.2zM410 399.5c-.7 0-1.3.6-1.2 1.3v8c0 .7.6 1.2 1.2 1.2.7 0 1.2-.6 1.2-1.3v-8c.1-.7-.5-1.2-1.2-1.2zM415.5 399.4c-.7 0-1.3.6-1.2 1.3v12.2c0 .7.6 1.2 1.2 1.2.7 0 1.2-.6 1.2-1.3v-12.2c0-.6-.5-1.2-1.2-1.2zM404.5 399.5c-.7 0-1.3.6-1.2 1.3V413c0 .7.6 1.2 1.2 1.2.7 0 1.2-.6 1.2-1.3v-12.2c.1-.7-.5-1.2-1.2-1.2zM421 399.4c-.7 0-1.2.6-1.2 1.3v8c0 .7.6 1.2 1.2 1.2.7 0 1.2-.6 1.2-1.3v-8c0-.6-.5-1.2-1.2-1.2zM426.1 399.4c-.7 0-1.3.6-1.2 1.3v4c0 .7.6 1.2 1.2 1.2.7 0 1.2-.6 1.2-1.3v-4c.1-.6-.5-1.2-1.2-1.2zM430.9 381.7c0-.3.1-.7.1-1 0-5-4-9-9-9-1.5 0-2.9.4-4.2 1-2.1-3.1-5.6-5-9.5-5-6.3 0-11.5 5.1-11.5 11.4 0 .6 0 1.3.1 1.9-4.4.2-8 3.8-8 8.3 0 2.2.9 4.3 2.4 5.9 1.6 1.6 3.7 2.5 5.9 2.5l30.6.1c4.6 0 8.3-3.7 8.4-8.3.1-3.5-2.1-6.6-5.3-7.8zm-3 13.7v1.2-1.2l-30.7-.1c-1.6 0-3-.6-4.1-1.7-1.1-1.1-1.7-2.6-1.7-4.1 0-3.2 2.6-5.8 5.9-5.8h2.9l-.5-1.6c-.3-.9-.4-1.8-.4-2.7 0-4.9 4-8.9 9-8.9 3.3 0 6.4 1.9 7.9 4.8l.7 1.3 1.2-.9c1.1-.8 2.5-1.3 3.9-1.3 3.6 0 6.5 2.9 6.5 6.5 0 .5-.1 1-.2 1.6l-.3 1.3 1.3.3c2.7.6 4.6 3 4.6 5.7-.1 2.9-2.8 5.6-6 5.6z"/>
    <path d="M415.1 382.5h-3l1.8-3.4c.3-.6.1-1.4-.5-1.7-.6-.3-1.4-.1-1.7.5l-2.7 5.2c-.2.4-.2.9 0 1.2.2.4.6.6 1.1.6h3L411 389c-.3.6-.1 1.4.5 1.7.2.1.4.1.6.1.5 0 .9-.2 1.1-.7l3.1-5.9c.2-.4.2-.9 0-1.2-.4-.2-.8-.5-1.2-.5z"/>
  </g>
  <g fill="#444">
    <path d="M430.8 244.4c0-.3.1-.7.1-1 0-5-4-9-9-9-1.5 0-2.9.4-4.2 1.1-2.1-3.1-5.6-4.9-9.4-4.9-6.3 0-11.5 5.1-11.5 11.5 0 .6.1 1.3.2 1.9-4.4.2-8 3.9-8 8.3 0 4.6 3.7 8.4 8.4 8.4H428c4.6 0 8.4-3.7 8.4-8.4-.1-3.6-2.4-6.7-5.6-7.9zm-2.9 13.6h-30.6c-3.2 0-5.9-2.6-5.9-5.9s2.6-5.9 5.9-5.9h2.9l-.5-1.6c-.3-.9-.4-1.8-.4-2.7 0-4.9 4-9 9-9 3.3 0 6.4 1.8 7.9 4.8l.7 1.3 1.2-.9c1.1-.9 2.5-1.3 3.9-1.3 3.6 0 6.5 2.9 6.5 6.5 0 .5-.1 1-.2 1.6l-.3 1.3 1.3.3c2.7.6 4.6 3 4.6 5.7-.1 3.2-2.8 5.8-6 5.8zM399.1 262.6c-.7 0-1.2.6-1.2 1.2v8c0 .7.6 1.2 1.2 1.2.7 0 1.2-.6 1.2-1.2v-8c.1-.6-.5-1.2-1.2-1.2zM410.1 262.6c-.7 0-1.2.6-1.2 1.2v8c0 .7.6 1.2 1.2 1.2.7 0 1.2-.6 1.2-1.2v-8c0-.6-.5-1.2-1.2-1.2zM415.6 262.6c-.7 0-1.2.6-1.2 1.2V276c0 .7.6 1.2 1.2 1.2.7 0 1.2-.6 1.2-1.2v-12.2c0-.6-.6-1.2-1.2-1.2zM404.6 262.6c-.7 0-1.2.6-1.2 1.2V276c0 .7.6 1.2 1.2 1.2.7 0 1.2-.6 1.2-1.2v-12.2c0-.6-.5-1.2-1.2-1.2zM421 262.6c-.7 0-1.2.6-1.2 1.2v8c0 .7.6 1.2 1.2 1.2s1.2-.6 1.2-1.2v-8c.1-.6-.5-1.2-1.2-1.2zM426.2 262.6c-.7 0-1.2.6-1.2 1.2v4c0 .7.6 1.2 1.2 1.2.7 0 1.2-.6 1.2-1.2v-4c0-.6-.5-1.2-1.2-1.2z"/>
  </g>
  <g fill="#444">
    <path d="M430.8 108.9c0-.3.1-.7.1-1 0-5-4-9-9-9-1.5 0-2.9.4-4.2 1.1-2.1-3.1-5.6-4.9-9.4-4.9-6.3 0-11.5 5.1-11.5 11.5 0 .6.1 1.3.2 1.9-4.4.2-8 3.9-8 8.3 0 4.6 3.7 8.4 8.4 8.4H428c4.6 0 8.4-3.7 8.4-8.4-.1-3.6-2.4-6.7-5.6-7.9zm-2.9 13.6h-30.6c-3.2 0-5.9-2.6-5.9-5.9 0-3.2 2.6-5.9 5.9-5.9h2.9l-.5-1.6c-.3-.9-.4-1.8-.4-2.7 0-4.9 4-9 9-9 3.3 0 6.4 1.8 7.9 4.8l.7 1.3 1.2-.9c1.1-.9 2.5-1.3 3.9-1.3 3.6 0 6.5 2.9 6.5 6.5 0 .5-.1 1-.2 1.6l-.3 1.3 1.3.3c2.7.6 4.6 3 4.6 5.7-.1 3.2-2.8 5.8-6 5.8zM407 131h-2.3l1.4-2.7c.3-.6.1-1.4-.5-1.7-.6-.3-1.4-.1-1.7.5l-2.4 4.5c-.2.4-.2.9 0 1.2.2.4.6.6 1.1.6h2.3l-1.7 3.3c-.3.6-.1 1.4.5 1.7.2.1.4.1.6.1.5 0 .9-.2 1.1-.7l2.7-5.1c.2-.4.2-.9 0-1.2-.2-.2-.6-.5-1.1-.5zM414.8 131h-2.3l1.4-2.7c.3-.6.1-1.4-.5-1.7-.6-.3-1.4-.1-1.7.5l-2.4 4.5c-.2.4-.2.9 0 1.2.2.4.6.6 1.1.6h2.3l-1.7 3.3c-.3.6-.1 1.4.5 1.7.2.1.4.1.6.1.5 0 .9-.2 1.1-.7l2.7-5.1c.2-.4.2-.9 0-1.2-.3-.2-.7-.5-1.1-.5zM422.5 131h-2.3l1.4-2.7c.3-.6.1-1.4-.5-1.7-.6-.3-1.4-.1-1.7.5l-2.4 4.5c-.2.4-.2.9 0 1.2.2.4.6.6 1.1.6h2.3l-1.7 3.3c-.3.6-.1 1.4.5 1.7.2.1.4.1.6.1.5 0 .9-.2 1.1-.7l2.7-5.1c.2-.4.2-.9 0-1.2-.2-.2-.6-.5-1.1-.5z"/>
  </g>
  <path fill="#444" d="M321.5 675.2l-5.3-3c.3-.4.7-.7 1.2-.7.8-.1 1.5.4 1.6.4.5.4 1.3.4 1.8-.1.4-.5.4-1.3-.1-1.8-.2-.1-1.6-1.3-3.6-1-1.1.2-2.1.8-3 1.9l-2-1.2.2-.3c.3-.6.1-1.4-.5-1.7-.6-.3-1.4-.1-1.7.5l-.2.3-4-2.3 4-2.3.2.3c.2.4.7.6 1.1.6.2 0 .4-.1.6-.2.6-.3.8-1.1.5-1.7l-.2-.3 2-1.2c.9 1.1 1.8 1.7 3 1.9.2 0 .5.1.7.1 1.6 0 2.7-.9 2.9-1.1.5-.4.6-1.2.1-1.8-.4-.5-1.2-.6-1.8-.1 0 0-.7.6-1.5.4-.5-.1-.9-.4-1.2-.7l5.3-3c.6-.3.8-1.1.5-1.7-.3-.6-1.1-.8-1.7-.5l-5.3 3c-.1-.5-.2-1-.1-1.4.3-.8 1.1-1.1 1.2-1.1.6-.2 1-.9.7-1.6-.2-.7-.9-1-1.6-.8-.2.1-2 .7-2.7 2.6-.4 1.1-.3 2.3.2 3.5l-2 1.2-.2-.3c-.3-.6-1.1-.8-1.7-.5-.6.3-.8 1.1-.5 1.7l.2.3-4 2.3v-4.7h.4c.7 0 1.2-.6 1.2-1.2 0-.7-.6-1.2-1.2-1.2h-.4v-2.3c1.4-.2 2.4-.7 3.2-1.6 1.3-1.5 1-3.4.9-3.6-.1-.7-.8-1.1-1.4-1-.7.1-1.1.8-1 1.4 0 0 .1.9-.4 1.6-.3.3-.8.5-1.2.6v-6.1c0-.7-.6-1.2-1.3-1.2-.7 0-1.2.6-1.2 1.2v6.1c-.5-.1-.9-.3-1.2-.6-.5-.6-.4-1.5-.4-1.6.1-.7-.3-1.3-1-1.4-.7-.1-1.3.3-1.5 1 0 .2-.3 2.1.9 3.6.7.9 1.8 1.4 3.2 1.6v2.3h-.4c-.7 0-1.2.6-1.2 1.2 0 .7.6 1.2 1.2 1.2h.4v4.7l-4-2.3.2-.3c.3-.6.1-1.4-.5-1.7-.6-.3-1.4-.1-1.7.5l-.2.3-2-1.2c.5-1.3.6-2.5.2-3.5-.7-1.9-2.5-2.5-2.7-2.6-.6-.2-1.4.1-1.6.8-.2.7.1 1.4.8 1.6 0 0 .9.3 1.1 1.1.2.4.1.9 0 1.4l-5.3-3c-.6-.3-1.4-.1-1.7.5-.3.6-.1 1.4.5 1.7l5.3 3c-.3.4-.7.7-1.2.7-.8.2-1.5-.4-1.6-.4-.5-.4-1.3-.4-1.8.1-.4.5-.4 1.3.1 1.8.1.1 1.3 1.1 2.9 1.1.2 0 .5 0 .7-.1 1.1-.2 2.1-.8 3-1.9l2 1.2-.2.3c-.3.6-.1 1.4.5 1.7.2.1.4.2.6.2.4 0 .9-.2 1.1-.6l.2-.3 4 2.3-4 2.3-.2-.3c-.3-.6-1.1-.8-1.7-.5-.6.3-.8 1.1-.5 1.7l.2.3-2 1.2c-.9-1.1-1.8-1.7-3-1.9-1.9-.3-3.4.9-3.6 1-.5.4-.6 1.2-.1 1.8.4.5 1.2.6 1.8.1 0 0 .7-.6 1.5-.4.5.1.9.4 1.2.7l-5.3 3c-.6.3-.8 1.1-.5 1.7.2.4.7.6 1.1.6.2 0 .4-.1.6-.2l5.3-3c.1.5.2 1 .1 1.4-.3.8-1.1 1.1-1.2 1.1-.6.2-1 .9-.7 1.6.2.5.7.8 1.2.8.1 0 .3 0 .4-.1.2-.1 2-.7 2.7-2.6.4-1.1.3-2.3-.2-3.5l2-1.2.2.3c.2.4.7.6 1.1.6.2 0 .4-.1.6-.2.6-.3.8-1.1.5-1.7l-.2-.3 4-2.3v4.7h-.4c-.7 0-1.2.6-1.2 1.2 0 .7.6 1.2 1.2 1.2h.4v2.3c-1.4.2-2.4.7-3.2 1.6-1.3 1.5-1 3.4-.9 3.6.1.6.6 1 1.2 1h.2c.7-.1 1.1-.8 1-1.4 0 0-.1-.9.4-1.6.3-.3.8-.5 1.2-.6v6.1c0 .7.6 1.2 1.2 1.2.7 0 1.3-.6 1.3-1.2v-6.1c.5.1.9.3 1.2.6.5.6.4 1.5.4 1.6-.1.7.3 1.3 1 1.4h.2c.6 0 1.1-.4 1.2-1 0-.2.3-2.1-.9-3.6-.7-.9-1.8-1.4-3.2-1.6v-2.3h.4c.7 0 1.2-.6 1.2-1.2 0-.7-.6-1.2-1.2-1.2h-.4v-4.7l4 2.3-.2.3c-.3.6-.1 1.4.5 1.7.2.1.4.2.6.2.4 0 .9-.2 1.1-.6l.2-.3 2 1.2c-.5 1.3-.6 2.5-.2 3.5.7 1.9 2.5 2.5 2.7 2.6.1 0 .3.1.4.1.5 0 1-.3 1.2-.8.2-.7-.1-1.4-.8-1.6 0 0-.9-.3-1.1-1.1-.2-.4-.1-.9 0-1.4l5.3 3c.2.1.4.2.6.2.4 0 .9-.2 1.1-.6.4-.6.2-1.4-.4-1.7z"/>
  <g fill="#444">
    <path d="M327.6 517c0-3-1.2-5.9-3.3-8-1.5-1.5-3.5-2.6-5.6-3.1l-2.4-.5 1 2.3c.9 2 .9 4.4.1 6.4-1.5-1.2-3.4-1.8-5.4-1.8-1.5 0-2.9.4-4.2 1.1-2.1-3.1-5.6-4.9-9.4-4.9-6.3 0-11.5 5.1-11.5 11.5 0 .6.1 1.3.2 1.9-4.4.2-8 3.9-8 8.3 0 4.6 3.7 8.4 8.4 8.4h30.6c4.6 0 8.4-3.7 8.4-8.4 0-1.9-.7-3.7-1.8-5.1 1.8-2.4 2.9-5.2 2.9-8.1zm-9.7 18.8h-30.6c-3.2 0-5.9-2.6-5.9-5.9 0-3.2 2.6-5.9 5.9-5.9h2.9l-.5-1.6c-.3-.9-.4-1.8-.4-2.7 0-4.9 4-9 9-9 3.3 0 6.4 1.8 7.9 4.8l.7 1.3 1.2-.9c1.1-.9 2.5-1.3 3.9-1.3 1.5 0 3 .5 4.1 1.5.7.5 1.2 1.2 1.6 1.9.5.9.8 2 .8 3.1 0 .5-.1 1-.2 1.6l-.3 1.3 1.3.3c.5.1.9.3 1.4.5.8.4 1.5 1 2 1.7.8 1 1.2 2.2 1.2 3.5-.1 3.2-2.8 5.8-6 5.8zm4.8-12.7c-.6-.4-1.2-.7-1.8-1 0-.3.1-.7.1-1 0-2-.6-3.8-1.7-5.2 1.1-2.1 1.6-4.5 1.2-6.8.8.4 1.5 1 2.2 1.6 1.7 1.7 2.6 3.9 2.6 6.3-.2 2.3-1 4.4-2.6 6.1zM310 540.3c-.7 0-1.2.6-1.2 1.2v2c0 .7.6 1.2 1.2 1.2.7 0 1.2-.6 1.2-1.2v-2c0-.6-.5-1.2-1.2-1.2zM310 546.1c-.7 0-1.2.6-1.2 1.3 0 .7.6 1.2 1.2 1.2.7 0 1.2-.6 1.2-1.2v-.1c0-.7-.5-1.2-1.2-1.2zM310 549.7c-.7 0-1.2.6-1.2 1.3 0 .7.6 1.2 1.2 1.2.7 0 1.2-.6 1.2-1.2v-.1c0-.7-.5-1.2-1.2-1.2zM288.9 546.1c-.7 0-1.2.6-1.2 1.3 0 .7.6 1.2 1.2 1.2.7 0 1.2-.6 1.2-1.2v-.1c0-.7-.5-1.2-1.2-1.2zM299 540.3c-.7 0-1.2.6-1.2 1.2v2c0 .7.6 1.2 1.2 1.2.7 0 1.2-.6 1.2-1.2v-2c.1-.6-.5-1.2-1.2-1.2zM293.7 540.6c-.7 0-1.2.6-1.2 1.2v3.8c0 .7.6 1.2 1.2 1.2.7 0 1.2-.6 1.2-1.2v-3.8c.1-.7-.5-1.2-1.2-1.2zM315.4 540.3c-.7 0-1.2.6-1.2 1.2v1.2c0 .7.6 1.2 1.2 1.2s1.2-.6 1.2-1.2v-1.2c0-.6-.5-1.2-1.2-1.2zM288.9 540.3c-.7 0-1.2.6-1.2 1.2v2.4c0 .7.6 1.2 1.2 1.2.7 0 1.2-.6 1.2-1.2v-2.4c0-.6-.5-1.2-1.2-1.2zM304.6 540.3c-.7 0-1.2.6-1.2 1.2v4c0 .7.6 1.2 1.2 1.2.7 0 1.2-.6 1.2-1.2v-4c0-.6-.5-1.2-1.2-1.2z"/>
  </g>
  <path fill="#444" d="M328 387c0-6.3-5.1-11.4-11.4-11.4-2.4 0-5.9 1.5-5.9 1.5s7.5 1.5 8.9 9.1c-1.5-2.9-4.5-4.9-8-4.9-1.5 0-2.9.4-4.2 1.1-2.1-3.1-5.6-4.9-9.4-4.9-6.3 0-11.5 5.1-11.5 11.5 0 .6.1 1.3.2 1.9-4.4.2-8 3.9-8 8.3 0 4.6 3.7 8.4 8.4 8.4h30.6c4.6 0 8.4-3.7 8.4-8.4 0-1.5-.4-2.9-1.1-4.2 1.8-2.2 3-5 3-8zm-10.4-8.9c4.4.5 7.9 4.3 7.9 8.9 0 2.3-.9 4.4-2.3 6-.2-.2-.4-.3-.6-.5l-1.5-.9c.7-1.4 1-3 1-4.6.1-3.7-1.7-6.9-4.5-8.9zm0 26.8H287c-3.2 0-5.9-2.6-5.9-5.9 0-3.2 2.6-5.9 5.9-5.9h2.9l-.5-1.6c-.3-.9-.4-1.8-.4-2.7 0-4.9 4-9 9-9 3.3 0 6.4 1.8 7.9 4.8l.7 1.3 1.2-.9c1.1-.9 2.5-1.3 3.9-1.3 3.6 0 6.5 2.9 6.5 6.5 0 .3 0 .6-.1.9 0 .2-.1.5-.1.7l-.3 1.3 1.3.3c.1 0 .3.1.4.1.3.1.7.2 1 .4.8.4 1.6 1 2.1 1.8.7 1 1.1 2.2 1.1 3.4-.2 3.2-2.8 5.8-6 5.8zM327.6 249.3c0-3-1.2-5.9-3.3-8-1.5-1.5-3.5-2.6-5.6-3.1l-2.4-.5 1 2.3c.9 2 .9 4.4.1 6.4-1.5-1.2-3.4-1.8-5.4-1.8-1.5 0-2.9.4-4.2 1.1-2.1-3.1-5.6-4.9-9.4-4.9-6.3 0-11.5 5.1-11.5 11.5 0 .6.1 1.3.2 1.9-4.4.2-8 3.9-8 8.3 0 4.6 3.7 8.4 8.4 8.4h30.6c4.6 0 8.4-3.7 8.4-8.4 0-1.9-.7-3.7-1.8-5.1 1.8-2.4 2.9-5.2 2.9-8.1zm-7.2-7.9c.8.4 1.5 1 2.2 1.6 1.7 1.7 2.6 3.9 2.6 6.3 0 2.3-.9 4.5-2.5 6.1-.6-.4-1.2-.7-1.8-1 0-.3.1-.7.1-1 0-2-.6-3.8-1.7-5.2 1-2.1 1.5-4.5 1.1-6.8zm-2.5 26.7h-30.6c-3.2 0-5.9-2.6-5.9-5.9 0-3.2 2.6-5.9 5.9-5.9h2.9l-.5-1.6c-.3-.9-.4-1.8-.4-2.7 0-4.9 4-9 9-9 3.3 0 6.4 1.8 7.9 4.8l.7 1.3 1.2-.9c1.1-.9 2.5-1.3 3.9-1.3 1.5 0 3 .5 4.1 1.5.7.5 1.2 1.2 1.6 1.9.5.9.8 2 .8 3.1 0 .5-.1 1-.2 1.6l-.3 1.3 1.3.3c.5.1.9.3 1.4.5.8.4 1.5 1 2 1.7.8 1 1.2 2.2 1.2 3.5-.1 3.2-2.8 5.8-6 5.8zM329.7 112.1c0-5.9-4.8-10.7-10.7-10.7-3.6 0-6.9 1.8-8.8 4.6h-.3c-1.5 0-2.9.4-4.2 1.1-2.1-3.1-5.6-4.9-9.4-4.9-6.3 0-11.5 5.1-11.5 11.5 0 .6.1 1.3.2 1.9-4.4.2-8 3.9-8 8.3 0 4.6 3.7 8.4 8.4 8.4H316c4.6 0 8.4-3.7 8.4-8.4 0-.8-.1-1.5-.3-2.2 3.2-1.9 5.6-5.4 5.6-9.6zm-8 11.8c0 3.2-2.6 5.9-5.9 5.9h-30.6c-3.2 0-5.9-2.6-5.9-5.9 0-3.2 2.6-5.9 5.9-5.9h2.9l-.5-1.6c-.3-.9-.4-1.8-.4-2.7 0-4.9 4-9 9-9 3.3 0 6.4 1.8 7.9 4.8l.7 1.3 1.2-.9c.9-.6 1.9-1.1 2.9-1.2.3-.1.7-.1 1-.1.6 0 1.1.1 1.6.2 2.8.7 4.9 3.3 4.9 6.3 0 .5-.1 1-.2 1.6l-.3 1.3 1.3.3c1.3.3 2.5 1 3.3 2.1.5.7.9 1.5 1.1 2.3.1.2.1.7.1 1.2zm1.2-4.6c-1-1.5-2.4-2.7-4.1-3.3 0-.3.1-.7.1-1 0-3.9-2.5-7.2-5.9-8.4 1.5-1.6 3.6-2.7 6-2.7 4.5 0 8.2 3.7 8.2 8.2 0 3.1-1.8 5.9-4.3 7.2z"/>
  <g fill="#444">
    <path d="M205.3 672.4V648c0-2.9-2.4-5.3-5.3-5.3s-5.3 2.4-5.3 5.3v24.4c-2 1.6-3.2 4-3.2 6.6 0 4.7 3.8 8.5 8.5 8.5s8.5-3.8 8.5-8.5c0-2.6-1.2-5-3.2-6.6zm-5.2 12.6c-3.3 0-6-2.7-6-6 0-2 1-3.8 2.6-4.9l.6-.4V648c0-1.5 1.2-2.8 2.8-2.8 1.5 0 2.8 1.2 2.8 2.8v25.7l.6.4c1.7 1.1 2.6 3 2.6 4.9-.1 3.3-2.7 6-6 6z"/>
    <path d="M202.6 675.3l-1.2-.8V658c0-.7-.6-1.3-1.3-1.3-.7 0-1.3.6-1.3 1.3v16.5l-1.2.8c-1.2.8-2 2.2-2 3.7 0 2.5 2 4.5 4.5 4.5s4.5-2 4.5-4.5c0-1.5-.8-2.9-2-3.7z"/>
  </g>
  <g fill="#444">
    <path d="M207.8 511.8c-3.1 0-6.1.9-8.8 2.6l-2.1 1.4 2.3.9c4.8 1.8 7.9 6.3 7.9 11.4 0 5.1-3.2 9.6-7.9 11.4l-2.3.9 2.1 1.4c2.6 1.7 5.7 2.6 8.8 2.6 8.9 0 16.2-7.3 16.2-16.2 0-9.1-7.3-16.4-16.2-16.4zm0 29.9c-1.8 0-3.6-.4-5.3-1.1 4.4-2.6 7.2-7.4 7.2-12.6 0-5.2-2.8-10-7.2-12.6 1.7-.7 3.5-1.1 5.3-1.1 7.6 0 13.7 6.1 13.7 13.7s-6.1 13.7-13.7 13.7z"/>
    <path d="M196.4 528.2l1.8-1.7c.3-.3.5-.8.3-1.3-.1-.5-.5-.8-1-.9l-2.5-.3-1.1-2.2c-.2-.4-.6-.7-1.1-.7-.5 0-.9.3-1.1.7l-1.1 2.2-2.4.4c-.5.1-.9.4-1 .9-.1.5 0 1 .3 1.3l1.8 1.7-.4 2.4c-.1.5.1.9.5 1.2.4.3.9.3 1.3.1l2.2-1.1 2.2 1.1c.2.1.4.1.6.1.3 0 .5-.1.7-.2.4-.3.6-.8.5-1.2l-.5-2.5zm-2.2-1.3c-.3.3-.4.7-.4 1.1l.1.6-.5-.3c-.2-.1-.4-.1-.6-.1s-.4 0-.6.1l-.5.3.1-.6c.1-.4-.1-.8-.4-1.1l-.4-.4.6-.1c.4-.1.8-.3.9-.7l.3-.5.3.5c.2.4.5.6.9.7l.6.1-.4.4zM183.8 533.3l-1.5-.2-.7-1.4c-.2-.4-.6-.7-1.1-.7-.5 0-.9.3-1.1.7l-.7 1.4-1.5.2c-.5.1-.9.4-1 .9-.1.5 0 .9.3 1.3l1.1 1.1-.3 1.5c-.1.5.1.9.5 1.2.4.3.9.3 1.3.1l1.3-.7 1.3.7c.2.1.4.1.6.1.3 0 .5-.1.7-.2.4-.3.6-.8.5-1.2l-.3-1.5 1.1-1.1c.3-.3.5-.8.3-1.3 0-.5-.3-.8-.8-.9zm-3 2.7h-.6c0-.2-.1-.4-.2-.6.2-.1.4-.2.5-.4.1.2.3.3.5.4-.1.2-.2.4-.2.6z"/>
  </g>
  <path fill="#444" d="M196.3 407.2c-2 0-3.9-.4-5.7-1.1l-4.2-1.6 4.4-.8c6.2-1.1 10.7-6.5 10.7-12.8 0-6.3-4.5-11.6-10.7-12.8l-4.4-.8 4.2-1.6c1.8-.7 3.8-1.1 5.7-1.1 8.9 0 16.2 7.3 16.2 16.2 0 9.1-7.3 16.4-16.2 16.4zm-.7-2.5h.6c7.6 0 13.7-6.1 13.7-13.7s-6.1-13.7-13.7-13.7h-.6c5 2.6 8.3 7.8 8.3 13.7 0 5.8-3.3 11-8.3 13.7zM196.7 270.1c-3.1 0-6.1-.9-8.8-2.6l-2.1-1.4 2.3-.9c4.8-1.8 7.9-6.3 7.9-11.4 0-5.1-3.2-9.6-7.9-11.4l-2.3-.9 2.1-1.4c2.6-1.7 5.7-2.6 8.8-2.6 8.9 0 16.2 7.3 16.2 16.2 0 9.1-7.3 16.4-16.2 16.4zm-5.4-3.6c1.7.7 3.5 1.1 5.3 1.1 7.6 0 13.7-6.1 13.7-13.7s-6.1-13.7-13.7-13.7c-1.8 0-3.6.4-5.3 1.1 4.4 2.6 7.2 7.4 7.2 12.6.1 5.2-2.8 10-7.2 12.6zM200.1 133c-8.9 0-16.2-7.3-16.2-16.2 0-8.9 7.3-16.2 16.2-16.2 8.9 0 16.2 7.3 16.2 16.2 0 9-7.3 16.2-16.2 16.2zm0-29.9c-7.6 0-13.7 6.1-13.7 13.7s6.1 13.7 13.7 13.7 13.7-6.1 13.7-13.7c0-7.5-6.2-13.7-13.7-13.7zM102.9 658.2l-9.1-9.1-9.1 9.1c-2.5 2.5-3.8 5.8-3.8 9.3 0 3.5 1.4 6.8 3.8 9.3 2.4 2.4 5.6 3.8 9.1 3.8 3.4-.1 6.6-1.4 9.1-3.8 2.5-2.5 3.8-5.8 3.8-9.3 0-3.5-1.3-6.8-3.8-9.3zm-1.8 16.8c-1.9 1.9-4.5 3-7.3 3.1-2.8 0-5.4-1.1-7.3-3.1-2-2-3.1-4.7-3.1-7.5s1.1-5.5 3.1-7.5l7.3-7.3 7.3 7.3c2 2 3.1 4.7 3.1 7.5s-1.1 5.5-3.1 7.5z"/>
  <g fill="#444">
    <circle cx="93.8" cy="527.8" r="7.2"/>
    <path d="M115.2 526.6h-8.8c-.3-2.6-1.3-4.9-2.8-6.8l4.5-4.5c.5-.5.5-1.3 0-1.8s-1.3-.5-1.8 0l-4.5 4.5c-1.9-1.6-4.2-2.6-6.8-2.8v-8.8c0-.7-.6-1.2-1.2-1.2s-1.2.6-1.2 1.2v8.8c-2.6.3-4.9 1.3-6.8 2.8l-4.5-4.5c-.5-.5-1.3-.5-1.8 0s-.5 1.3 0 1.8l4.5 4.5c-1.6 1.9-2.6 4.2-2.8 6.8h-8.8c-.7 0-1.2.6-1.2 1.2 0 .7.6 1.2 1.2 1.2h8.8c.3 2.6 1.3 4.9 2.8 6.8l-4.5 4.5c-.5.5-.5 1.3 0 1.8.2.2.6.4.9.4s.6-.1.9-.4l4.5-4.5c1.9 1.6 4.2 2.6 6.8 2.8v8.8c0 .7.6 1.2 1.2 1.2s1.2-.6 1.2-1.2v-8.8c2.6-.3 4.9-1.3 6.8-2.8l4.5 4.5c.2.2.6.4.9.4s.6-.1.9-.4c.5-.5.5-1.3 0-1.8l-4.5-4.5c1.6-1.9 2.6-4.2 2.8-6.8h8.8c.7 0 1.2-.6 1.2-1.2.1-.7-.5-1.2-1.2-1.2zM93.8 538c-5.6 0-10.2-4.6-10.2-10.2s4.6-10.2 10.2-10.2 10.2 4.6 10.2 10.2c0 5.7-4.5 10.2-10.2 10.2z"/>
  </g>
  <g fill="#444">
    <path d="M78.7 405.2c-.7 0-1.2.6-1.2 1.2v8c0 .7.6 1.2 1.2 1.2s1.2-.6 1.2-1.2v-8c.1-.6-.5-1.2-1.2-1.2zM89.6 405.2c-.7 0-1.2.6-1.2 1.2v8c0 .7.6 1.2 1.2 1.2.7 0 1.2-.6 1.2-1.2v-8c0-.6-.6-1.2-1.2-1.2zM100.4 405.2c-.7 0-1.2.6-1.2 1.2v2c0 .7.6 1.2 1.2 1.2s1.2-.6 1.2-1.2v-2c0-.6-.5-1.2-1.2-1.2zM100.4 410.7c-.7 0-1.2.6-1.2 1.3 0 .7.6 1.2 1.2 1.2s1.2-.6 1.2-1.2c0-.8-.5-1.3-1.2-1.3zM84.1 405.2c-.7 0-1.2.6-1.2 1.2v2c0 .7.6 1.2 1.2 1.2.7 0 1.2-.6 1.2-1.2v-2c.1-.6-.5-1.2-1.2-1.2zM84.1 410.7c-.7 0-1.2.6-1.2 1.3 0 .7.6 1.2 1.2 1.2.7 0 1.2-.6 1.2-1.2.1-.8-.5-1.3-1.2-1.3zM105.8 405.2c-.7 0-1.2.6-1.2 1.2v4c0 .7.6 1.2 1.2 1.2s1.2-.6 1.2-1.2v-4c0-.6-.5-1.2-1.2-1.2zM95 405.2c-.7 0-1.2.6-1.2 1.2v4c0 .7.6 1.2 1.2 1.2.7 0 1.2-.6 1.2-1.2v-4c0-.6-.5-1.2-1.2-1.2zM118.6 378h-4.5c-.2-1.2-.7-2.3-1.3-3.2l2.2-2.2c.5-.5.5-1.3 0-1.8s-1.3-.5-1.8 0L111 373c-.9-.7-2-1.1-3.2-1.3v-4.5c0-.7-.6-1.2-1.2-1.2s-1.2.6-1.2 1.2v4.5c-1.2.2-2.3.7-3.2 1.3l-2.2-2.2c-.5-.5-1.3-.5-1.8 0s-.5 1.3 0 1.8l2.2 2.2c-.5.7-.9 1.5-1.2 2.4-.9.2-1.8.5-2.6.9-2.1-3.1-5.6-4.9-9.4-4.9-6.3 0-11.5 5.1-11.5 11.5 0 .6.1 1.3.2 1.9-4.4.2-8 3.9-8 8.3 0 4.6 3.7 8.4 8.4 8.4h30.6c4.6 0 8.4-3.7 8.4-8.4 0-3.5-2.2-6.6-5.4-7.8v-.8c.5-.2.9-.5 1.3-.7l2.2 2.2c.2.2.6.4.9.4.3 0 .6-.1.9-.4.5-.5.5-1.3 0-1.8l-2.2-2.2c.7-.9 1.1-2 1.3-3.2h4.5c.7 0 1.2-.6 1.2-1.2s-.7-1.4-1.4-1.4zm-6 16.9c0 3.2-2.6 5.9-5.9 5.9H76.1c-3.2 0-5.9-2.6-5.9-5.9 0-3.2 2.6-5.9 5.9-5.9H79l-.5-1.6c-.3-.9-.4-1.8-.4-2.7 0-4.9 4-9 9-9 3.3 0 6.4 1.8 7.9 4.8l.7 1.3 1.2-.9c.6-.5 1.3-.8 2-1 .6-.2 1.2-.3 1.9-.3h.6c2.7.3 5 2.2 5.6 4.8.1.5.2 1.1.2 1.6 0 .3 0 .6-.1.9 0 .2-.1.5-.1.7l-.3 1.3 1.3.3c2.7.5 4.6 3 4.6 5.7zm-3.2-11.3c-1-3.4-3.9-6-7.6-6.5.8-1.8 2.6-3 4.7-3 2.9 0 5.2 2.3 5.2 5.2.1 1.8-.9 3.4-2.3 4.3z"/>
  </g>
  <path fill="#444" d="M118.6 247.2h-4.5c-.2-1.2-.7-2.3-1.3-3.2l2.2-2.2c.5-.5.5-1.3 0-1.8s-1.3-.5-1.8 0l-2.2 2.2c-.9-.7-2-1.1-3.2-1.3v-4.5c0-.7-.6-1.2-1.2-1.2s-1.2.6-1.2 1.2v4.5c-1.2.2-2.3.7-3.2 1.3L100 240c-.5-.5-1.3-.5-1.8 0s-.5 1.3 0 1.8l2.2 2.2c-.5.7-.9 1.5-1.2 2.4-.9.2-1.8.5-2.6.9-2.1-3.1-5.6-4.9-9.4-4.9-6.3 0-11.5 5.1-11.5 11.5 0 .6.1 1.3.2 1.9-4.4.2-8 3.9-8 8.3 0 4.6 3.7 8.4 8.4 8.4h30.6c4.6 0 8.4-3.7 8.4-8.4 0-3.5-2.2-6.6-5.4-7.8v-.8c.5-.2.9-.5 1.3-.7l2.2 2.2c.2.2.6.4.9.4.3 0 .6-.1.9-.4.5-.5.5-1.3 0-1.8L113 253c.7-.9 1.1-2 1.3-3.2h4.5c.7 0 1.2-.6 1.2-1.2-.1-.8-.7-1.4-1.4-1.4zm-6 16.9c0 3.2-2.6 5.9-5.9 5.9H76.1c-3.2 0-5.9-2.6-5.9-5.9 0-3.2 2.6-5.9 5.9-5.9H79l-.5-1.6c-.3-.9-.4-1.8-.4-2.7 0-4.9 4-9 9-9 3.3 0 6.4 1.8 7.9 4.8l.7 1.3 1.2-.9c.6-.5 1.3-.8 2-1 .6-.2 1.2-.3 1.9-.3h.6c2.7.3 5 2.2 5.6 4.8.1.5.2 1.1.2 1.6 0 .3 0 .6-.1.9 0 .2-.1.5-.1.7l-.3 1.3 1.3.3c2.7.5 4.6 3 4.6 5.7zm-3.2-11.3c-1-3.4-3.9-6-7.6-6.5.8-1.8 2.6-3 4.7-3 2.9 0 5.2 2.3 5.2 5.2.1 1.8-.9 3.4-2.3 4.3zM115.2 115.6h-8.8c-.3-2.6-1.3-4.9-2.8-6.8l4.5-4.5c.5-.5.5-1.3 0-1.8s-1.3-.5-1.8 0l-4.5 4.5c-1.9-1.6-4.2-2.6-6.8-2.8v-8.8c0-.7-.6-1.2-1.2-1.2s-1.2.6-1.2 1.2v8.8c-2.6.3-4.9 1.3-6.8 2.8l-4.5-4.5c-.5-.5-1.3-.5-1.8 0s-.5 1.3 0 1.8l4.5 4.5c-1.6 1.9-2.6 4.2-2.8 6.8h-8.8c-.7 0-1.2.6-1.2 1.2 0 .7.6 1.2 1.2 1.2h8.8c.3 2.6 1.3 4.9 2.8 6.8l-4.5 4.5c-.5.5-.5 1.3 0 1.8.2.2.6.4.9.4.3 0 .6-.1.9-.4l4.5-4.5c1.9 1.6 4.2 2.6 6.8 2.8v8.8c0 .7.6 1.2 1.2 1.2s1.2-.6 1.2-1.2v-8.8c2.6-.3 4.9-1.3 6.8-2.8l4.5 4.5c.2.2.6.4.9.4s.6-.1.9-.4c.5-.5.5-1.3 0-1.8l-4.5-4.5c1.6-1.9 2.6-4.2 2.8-6.8h8.8c.7 0 1.2-.6 1.2-1.2.1-.7-.5-1.2-1.2-1.2zM93.8 127c-5.6 0-10.2-4.6-10.2-10.2s4.6-10.2 10.2-10.2 10.2 4.6 10.2 10.2S99.5 127 93.8 127z"/>
</svg>
